<svg width="18" height="32" viewBox="0 0 18 32" fill="none" xmlns="http://www.w3.org/2000/svg">
<path fill-rule="evenodd" clip-rule="evenodd" d="M17.3471 31.4614C16.7054 32.084 15.6677 32.084 15.0277 31.4614L1.46163 18.2687C1.15796 17.9778 0.916155 17.6278 0.750925 17.2399C0.585695 16.852 0.50049 16.4343 0.50049 16.0121C0.50049 15.59 0.585695 15.1723 0.750925 14.7843C0.916155 14.3964 1.15796 14.0464 1.46163 13.7556L15.1259 0.465499C15.436 0.168483 15.8467 0.00154037 16.2746 -0.00142466C16.7024 -0.0043897 17.1153 0.156845 17.4295 0.449535C17.5851 0.594074 17.7096 0.769266 17.7953 0.964264C17.881 1.15926 17.9261 1.36991 17.9277 1.58317C17.9293 1.79643 17.8875 2.00775 17.8048 2.20406C17.7221 2.40037 17.6003 2.57747 17.4469 2.72442L4.94068 14.8843C4.78872 15.0297 4.66771 15.2047 4.58502 15.3988C4.50233 15.5928 4.45969 15.8018 4.45969 16.0129C4.45969 16.2241 4.50233 16.4331 4.58502 16.6271C4.66771 16.8211 4.78872 16.9962 4.94068 17.1416L17.3471 29.2057C17.499 29.3509 17.62 29.5258 17.7026 29.7197C17.7853 29.9136 17.8279 30.1225 17.8279 30.3335C17.8279 30.5446 17.7853 30.7534 17.7026 30.9473C17.62 31.1412 17.499 31.3161 17.3471 31.4614Z" fill="#5BF1D8"/>
</svg>
