<svg width="144" height="144" viewBox="0 0 144 144" fill="none" xmlns="http://www.w3.org/2000/svg">
<g clip-path="url(#clip0_7_47)">
<path d="M72 0.904297C53.0413 0.904297 34.8423 8.44196 21.4473 21.846C8.04102 35.25 0.5 53.449 0.5 72.4043C0.5 91.3596 8.04102 109.559 21.4473 122.963C34.8423 136.367 53.0413 143.904 72 143.904C90.9587 143.904 109.158 136.367 122.553 122.963C135.959 109.559 143.5 91.3596 143.5 72.4043C143.5 53.449 135.959 35.25 122.553 21.846C109.158 8.44196 90.9587 0.904297 72 0.904297Z" fill="url(#paint0_linear_7_47)"/>
<path d="M32.8648 71.649C53.7115 62.5685 67.6093 56.5815 74.5582 53.6891C94.4218 45.4297 98.5442 43.9952 101.237 43.9467C101.829 43.9371 103.147 44.0835 104.007 44.7795C104.722 45.366 104.923 46.1592 105.024 46.7156C105.113 47.2719 105.236 48.5399 105.136 49.5298C104.063 60.8357 99.4045 88.2716 97.036 100.935C96.0417 106.293 94.0643 108.09 92.1539 108.265C87.998 108.647 84.8475 105.521 80.8256 102.886C74.5359 98.7598 70.9832 96.1925 64.8722 92.1672C57.8116 87.5153 62.392 84.958 66.4139 80.7798C67.4641 79.686 85.7636 63.0455 86.1099 61.5362C86.1546 61.3474 86.1993 60.6436 85.7748 60.2727C85.3614 59.9006 84.747 60.028 84.3001 60.1285C83.6633 60.2715 73.6198 66.9166 54.136 80.0625C51.2872 82.0221 48.7065 82.9773 46.3827 82.927C43.8356 82.8722 38.9199 81.4836 35.2667 80.2971C30.798 78.8414 27.2342 78.0717 27.547 75.5993C27.7034 74.3123 29.4797 72.9952 32.8648 71.649Z" fill="white"/>
</g>
<defs>
<linearGradient id="paint0_linear_7_47" x1="7150.5" y1="0.904297" x2="7150.5" y2="14300.9" gradientUnits="userSpaceOnUse">
<stop stop-color="#2AABEE"/>
<stop offset="1" stop-color="#229ED9"/>
</linearGradient>
<clipPath id="clip0_7_47">
<rect width="143" height="143" fill="white" transform="translate(0.5 0.904297)"/>
</clipPath>
</defs>
</svg>
